<svg xmlns="http://www.w3.org/2000/svg" width="83.723" height="80.417" viewBox="0 0 83.723 80.417">
  <g id="fact" transform="translate(-9.321 -16.778)">
    <g id="earning-a-degree" transform="translate(9.321 16.778)">
      <path id="Path" d="M27.349,34.7a78.7,78.7,0,0,1-15.439-1.5,2.009,2.009,0,0,1-1.62-1.964V14.046l-8.846-2.62a2,2,0,0,1,0-3.841L26.77.084a2.037,2.037,0,0,1,1.157,0l25.28,7.487a2.023,2.023,0,0,1,.488.2,2,2,0,0,1,1,1.731c0,.021,0,.042,0,.062v8.891l1.052,2.509a2,2,0,0,1-1.09,2.62,2.036,2.036,0,0,1-1.983-.242,2.034,2.034,0,0,1-1.983.242,2,2,0,0,1-1.09-2.62l1.052-2.507V12.2L27.927,18.927a2.037,2.037,0,0,1-1.157,0L14.331,15.243V29.576a75.143,75.143,0,0,0,13.017,1.119,75.15,75.15,0,0,0,13.017-1.119V20.03a2.021,2.021,0,0,1,4.042,0V31.235a2.008,2.008,0,0,1-1.62,1.964A78.716,78.716,0,0,1,27.349,34.7Z" transform="translate(27.819 45.714)" fill="#f36d6a"/>
      <path id="Path-2" data-name="Path" d="M3.854,6.551l14.411,4.268L36.531,5.41,18.265,0,0,5.41,3.757,6.522Z" transform="translate(36.903 49.81)" fill="#f36d6a"/>
      <path id="Path-3" data-name="Path" d="M31.2,73.843H7.317A7.294,7.294,0,0,1,0,66.588v-25.6a2.013,2.013,0,0,1,2.021-2h2.4a2,2,0,1,1,0,4.008H4.042v23.6a3.264,3.264,0,0,0,3.274,3.247H8.692V10.129a2.013,2.013,0,0,1,2.021-2h6.96a10.51,10.51,0,0,1,20.472,0H62.574a2.013,2.013,0,0,1,2.021,2V40.722a2.021,2.021,0,0,1-4.042,0V12.134h-22.3A10.518,10.518,0,0,1,24.129,20.1v5.787l2.744-1.278a2.035,2.035,0,0,1,1.676-.019l3.139,1.376V23.785a2.021,2.021,0,0,1,4.042,0v5.26a2,2,0,0,1-.918,1.679,2.035,2.035,0,0,1-1.92.154l-5.135-2.251-4.791,2.232a2.036,2.036,0,0,1-1.943-.122,2,2,0,0,1-.938-1.692V17.322a10.337,10.337,0,0,1-2.521-5.188H12.734v57.7H31.2a2,2,0,1,1,0,4.008Z" fill="#f36d6a"/>
      <path id="Path-4" data-name="Path" d="M0,6.237c0,.052,0,.1,0,.156a6.447,6.447,0,0,0,12.893,0c0-.054,0-.109,0-.163,0-.029,0-.057,0-.086A6.449,6.449,0,0,0,.005,6.136C0,6.169,0,6.2,0,6.237Z" transform="translate(21.463 4.008)" fill="#f36d6a"/>
      <path id="Path-5" data-name="Path" d="M7.7,4.008H2.021A2,2,0,1,1,2.021,0H7.7a2,2,0,1,1,0,4.008Z" transform="translate(24.251 42.894)" fill="#f36d6a" opacity="0.4"/>
      <path id="Path-6" data-name="Path" d="M22.765,4.008H2.021A2,2,0,1,1,2.021,0H22.765a2,2,0,1,1,0,4.008Z" transform="translate(24.251 35.217)" fill="#f36d6a"/>
      <path id="Path-7" data-name="Path" d="M8.13,4.008H2.021A2,2,0,1,1,2.021,0H8.13a2,2,0,1,1,0,4.008Z" transform="translate(45.064 25.451)" fill="#f36d6a" opacity="0.4"/>
      <path id="Path-8" data-name="Path" d="M8.131,4.008H2.021A2,2,0,1,1,2.021,0H8.131a2,2,0,1,1,0,4.008Z" transform="translate(44.938 18.205)" fill="#f36d6a" opacity="0.4"/>
    </g>
  </g>
</svg>
